<?xml version="1.0" encoding="iso-8859-1"?>
<!-- Generator: Adobe Illustrator 18.1.1, SVG Export Plug-In . SVG Version: 6.00 Build 0)  -->
<svg version="1.1" id="Capa_1" xmlns="http://www.w3.org/2000/svg" xmlns:xlink="http://www.w3.org/1999/xlink" x="0px" y="0px"
	 viewBox="0 0 33.688 33.688" style="enable-background:new 0 0 33.688 33.688;" xml:space="preserve">
<g>
	<path style="fill:#030104;" d="M20.438,13.391c0,0-5.795,1.775-6.906,2.887c-1.11,1.107-1.11,2.906,0,4.018
		c1.111,1.109,2.91,1.109,4.019,0C18.66,19.184,20.438,13.391,20.438,13.391z"/>
	<path style="fill:#030104;" d="M28.157,7.232l2.978,2.979l2.552-2.555c0,0-1.693-4.225-7.658-7.656l-2.553,2.553l2.979,2.977l0,0
		v0.002L25.81,6.178c-2.736-2.346-6.283-3.77-10.17-3.77C7.001,2.408,0,9.408,0,18.049c0,8.637,7.001,15.639,15.64,15.639
		s15.64-7.002,15.64-15.639c0-3.889-1.426-7.436-3.769-10.17L28.157,7.232z M27.438,18.312c-0.002,0.012-0.003,0.025-0.003,0.041
		h0.224c-0.124,2.779-1.203,5.383-3.078,7.436l-0.141-0.141c-0.029,0.033-0.055,0.068-0.084,0.1l-2.134-2.133l-0.669,0.67
		l2.266,2.266c-2.057,1.875-4.656,2.955-7.439,3.08v-0.059c-0.075,0.006-0.146,0.014-0.223,0.018v-3.162h-0.853v3.203
		c-0.425-0.02-0.841-0.068-1.255-0.131c-2.39-0.312-4.607-1.344-6.407-2.988l2.269-2.268L9.28,23.615l-2.176,2.176
		c-0.041-0.049-0.075-0.098-0.12-0.143l-0.102,0.104c-1.931-2.113-2.958-4.756-3.079-7.439h3.204v-1.037h-2.98
		c0-0.012,0.002-0.027,0.002-0.039H3.803c0.121-2.684,1.148-5.326,3.081-7.439l0.138,0.141c0.031-0.033,0.055-0.068,0.085-0.102
		l2.134,2.139l0.671-0.672L7.645,9.037c2.054-1.877,4.66-2.955,7.438-3.078v0.059c0.072-0.006,0.148-0.016,0.222-0.02V9.16h0.853
		V5.959C16.581,5.977,17,6.027,17.413,6.09c2.391,0.314,4.606,1.346,6.404,2.988l-2.264,2.264l0.631,0.633l2.172-2.176
		c0.043,0.047,0.078,0.098,0.118,0.145l0.106-0.105c1.875,2.055,2.954,4.656,3.078,7.438h-3.205v1.037h2.985V18.312z"/>
</g>
<g>
</g>
<g>
</g>
<g>
</g>
<g>
</g>
<g>
</g>
<g>
</g>
<g>
</g>
<g>
</g>
<g>
</g>
<g>
</g>
<g>
</g>
<g>
</g>
<g>
</g>
<g>
</g>
<g>
</g>
</svg>
