<?xml version="1.0" encoding="iso-8859-1"?>
<!-- Generator: Adobe Illustrator 16.0.0, SVG Export Plug-In . SVG Version: 6.00 Build 0)  -->
<!DOCTYPE svg PUBLIC "-//W3C//DTD SVG 1.1//EN" "http://www.w3.org/Graphics/SVG/1.1/DTD/svg11.dtd">
<svg version="1.1" id="Capa_1" xmlns="http://www.w3.org/2000/svg" xmlns:xlink="http://www.w3.org/1999/xlink" x="0px" y="0px"
	 width="612px" height="612px" viewBox="0 0 612 612" style="enable-background:new 0 0 612 612;" xml:space="preserve">
<g>
	<path d="M569.624,0H42.377C18.975,0,0.007,18.982,0.007,42.369v527.26C0.007,593.018,18.975,612,42.377,612h527.247
		c23.402,0,42.369-18.982,42.369-42.369V42.369C611.995,18.982,593.026,0,569.624,0z M527.255,84.74v54.431h-204.32
		c-5.947-17.921-22.625-30.902-42.538-30.902c-19.915,0-36.594,12.979-42.538,30.902h-30.563
		c-5.946-17.923-22.627-30.902-42.54-30.902s-36.593,12.979-42.538,30.902H84.732V84.74H527.255z M489.757,444.598
		c-5.945-17.922-22.625-30.902-42.537-30.902s-36.594,12.979-42.539,30.902h-30.549c-5.945-17.922-22.625-30.902-42.537-30.902
		c-19.914,0-36.594,12.979-42.539,30.902H84.746V320.144h204.32c5.947,17.909,22.626,30.901,42.538,30.901
		c19.914,0,36.594-12.992,42.539-30.901h30.562c5.947,17.909,22.625,30.901,42.537,30.901c19.916,0,36.594-12.992,42.539-30.901
		h37.482v124.454H489.757L489.757,444.598z M489.757,291.883c-5.945-17.921-22.625-30.902-42.537-30.902
		s-36.594,12.979-42.539,30.902h-30.549c-5.945-17.921-22.625-30.902-42.537-30.902c-19.914,0-36.594,12.979-42.539,30.902H84.746
		V167.431h37.483c5.947,17.909,22.626,30.902,42.538,30.902c19.913,0,36.594-12.993,42.538-30.902h30.563
		c5.946,17.909,22.625,30.902,42.538,30.902c19.912,0,36.594-12.993,42.538-30.902h204.307v124.454L489.757,291.883L489.757,291.883
		z M84.746,527.261v-54.432h204.32c5.947,17.909,22.626,30.902,42.538,30.902c19.914,0,36.594-12.993,42.539-30.902h30.562
		c5.947,17.909,22.625,30.902,42.537,30.902c19.916,0,36.594-12.993,42.539-30.902h37.482v54.432H84.746z"/>
</g>
<g>
</g>
<g>
</g>
<g>
</g>
<g>
</g>
<g>
</g>
<g>
</g>
<g>
</g>
<g>
</g>
<g>
</g>
<g>
</g>
<g>
</g>
<g>
</g>
<g>
</g>
<g>
</g>
<g>
</g>
</svg>
