<?xml version="1.0" encoding="utf-8"?>
<!-- Generator: Adobe Illustrator 16.0.4, SVG Export Plug-In . SVG Version: 6.00 Build 0)  -->
<!DOCTYPE svg PUBLIC "-//W3C//DTD SVG 1.1//EN" "http://www.w3.org/Graphics/SVG/1.1/DTD/svg11.dtd">
<svg version="1.1" id="Capa_1" xmlns="http://www.w3.org/2000/svg" xmlns:xlink="http://www.w3.org/1999/xlink" x="0px" y="0px"
	 width="93.039px" height="93.039px" viewBox="0 0 93.039 93.039" enable-background="new 0 0 93.039 93.039" xml:space="preserve">
<g>
	<path d="M46.547,75.521c0,1.639-0.947,3.128-2.429,3.822c-0.573,0.271-1.187,0.402-1.797,0.402c-0.966,0-1.923-0.332-2.696-0.973
		L16.527,59.632H4.225C1.892,59.634,0,57.742,0,55.41V38.576c0-2.334,1.892-4.226,4.225-4.226h12.303l23.098-19.14
		c1.262-1.046,3.012-1.269,4.493-0.569c1.481,0.695,2.429,2.185,2.429,3.823L46.547,75.521L46.547,75.521z M62.785,68.919
		c-0.104,0.006-0.203,0.011-0.305,0.011c-1.116,0-2.191-0.44-2.986-1.237l-0.565-0.566c-1.482-1.479-1.656-3.822-0.408-5.504
		c3.164-4.267,4.834-9.324,4.834-14.628c0-5.706-1.896-11.058-5.483-15.478c-1.367-1.68-1.24-4.12,0.291-5.65l0.563-0.565
		c0.844-0.844,1.976-1.304,3.198-1.231c1.193,0.06,2.306,0.621,3.062,1.545c4.978,6.09,7.606,13.484,7.606,21.38
		c0,7.354-2.325,14.354-6.725,20.24C65.13,68.216,64.007,68.832,62.785,68.919z M80.251,81.976
		c-0.764,0.902-1.869,1.445-3.051,1.495c-0.059,0.002-0.117,0.004-0.178,0.004c-1.119,0-2.193-0.442-2.988-1.237l-0.555-0.555
		c-1.551-1.551-1.656-4.029-0.246-5.707c6.814-8.104,10.568-18.396,10.568-28.982c0-11.011-4.02-21.611-11.314-29.847
		c-1.479-1.672-1.404-4.203,0.17-5.783l0.555-0.555c0.822-0.826,1.89-1.281,3.115-1.242c1.162,0.033,2.262,0.547,3.035,1.417
		c8.818,9.928,13.676,22.718,13.676,36.01C93.041,59.783,88.5,72.207,80.251,81.976z"/>
</g>
<rect x="-15.981" y="130" fill="#FFFFFF" stroke="#000000" stroke-miterlimit="10" width="40.02" height="103.02"/>
</svg>
